<svg xmlns="http://www.w3.org/2000/svg" aria-hidden="true" class="mx-auto" width="80"
    height="80" viewBox="0 0 24 24">
    <path
        d="M8.999 3.999a4.002 4.002 0 000 8.003 3.999 3.999 0 003.998-4.005A3.998 3.998 0 009 4zm0 10C6.329 13.999 1 15.332 1 17.997V20h11.08a6.233 6.233 0 01-.078-1.001 6.97 6.97 0 011.407-4.199c-1.529-.523-3.228-.801-4.41-.801zm8.99 0a.261.261 0 00-.25.21l-.19 1.319a4.091 4.091 0 00-.85.492l-1.24-.502a.265.265 0 00-.308.112l-1.001 1.729a.255.255 0 00.059.322l1.06.83a3.95 3.95 0 000 .981l-1.06.83a.26.26 0 00-.059.318l1.001 1.729c.059.111.19.151.308.111l1.24-.497c.258.2.542.366.85.488l.19 1.318c.02.122.122.21.25.21h2.001c.122 0 .23-.088.25-.21l.19-1.318c.297-.132.59-.288.84-.488l1.25.497c.111.04.239 0 .313-.111l.996-1.729a.256.256 0 00-.059-.317l-1.07-.83c.02-.162.04-.323.04-.494a2.6 2.6 0 00-.04-.488l1.06-.83c.087-.084.121-.21.059-.322l-.996-1.729a.263.263 0 00-.313-.113l-1.24.503c-.26-.2-.543-.37-.85-.492l-.19-1.32a.238.238 0 00-.24-.21M18.989 17.5c.83 0 1.5.669 1.5 1.499 0 .83-.67 1.498-1.5 1.498S17.49 19.83 17.49 19s.669-1.499 1.499-1.499z"
        fill="currentColor" />
</svg>