<svg width="{{ width }}" height="{{ height }}" viewBox="0 0 105 105" class="mx-auto" fill="none" xmlns="http://www.w3.org/2000/svg">
    <path fill-rule="evenodd" clip-rule="evenodd"
        d="M50 0L0 28.57v57.144l50 28.572 49.986-28.563.014-.023V28.57L50 0zM14.44 31.314L50 11l35.557 20.314-9.616 5.497L50 21.995 24.066 36.815l-9.625-5.5zM54.815 54.4V35.74l16.322 9.328v18.655l-16.322-9.32V54.4zm-25.946-9.334l16.318-9.323v18.652L28.868 63.72V45.067zm25.946 44.477L80.757 74.72V45.06l9.62-5.5v40.658L54.814 100.54V89.543zM9.62 80.218V39.56l9.62 5.5v29.657l25.946 14.827v10.996L9.62 80.22v-.002zm24.053-8.25l16.322-9.327 16.325 9.327L50 81.291l-16.327-9.323z"
        fill="#1E3A8A" />
</svg>