<svg width="151" height="53" viewBox="0 0 151 53" fill="none" xmlns="http://www.w3.org/2000/svg">
<path d="M79.4 32.32C79.4 35.0133 78.4133 37.1267 76.44 38.66C74.4667 40.1933 71.9467 40.96 68.88 40.96C66.4533 40.96 64.1067 40.2933 61.84 38.96C60.72 38.2667 59.8 37.2867 59.08 36.02C58.36 34.7533 58 33.3067 58 31.68L63.04 31.44C63.04 32.88 63.6533 34 64.88 34.8C66.1067 35.6 67.4667 36 68.96 36C72.2933 36 73.96 34.8267 73.96 32.48C73.96 30.56 72.8267 29.4267 70.56 29.08L65.92 28.6C63.6 28.2533 61.76 27.4267 60.4 26.12C59.04 24.8133 58.36 22.9333 58.36 20.48C58.36 18.0267 59.3333 16 61.28 14.4C63.2267 12.8 65.6867 12 68.66 12C71.6333 12 74.0267 12.7533 75.84 14.26C77.6533 15.7667 78.56 17.7067 78.56 20.08L73.6 20.32C73.1467 18 71.5867 16.84 68.92 16.84C67.2933 16.84 66.02 17.1867 65.1 17.88C64.18 18.5733 63.72 19.3933 63.72 20.34C63.72 21.2867 64.0533 22.0333 64.72 22.58C65.3867 23.1267 66.2133 23.4667 67.2 23.6L71.76 24.08C76.8533 24.7733 79.4 27.52 79.4 32.32ZM105 12.24V40.72H99.44V29.2H89V40.72H83.44V12.24H89V24.28H99.44V12.24H105ZM116.8 12.24V40.72H111.24V12.24H116.8ZM144.92 26.36L144.96 29.44C144.853 31.3867 144.613 33.0267 144.24 34.36C143.867 35.6933 143.133 36.9067 142.04 38C140.227 39.8133 137.587 40.72 134.12 40.72C130.04 40.72 127.24 40.18 125.72 39.1C124.2 38.02 123.44 36.0667 123.44 33.24V12.24H134.52C137.72 12.24 140.227 13.1467 142.04 14.96C143.507 16.4267 144.373 18.2133 144.64 20.32C144.827 21.8133 144.92 23.8267 144.92 26.36ZM138.16 34C138.667 33.3867 138.993 32.54 139.14 31.46C139.287 30.38 139.36 28.6933 139.36 26.4C139.36 24.1067 139.287 22.4467 139.14 21.42C138.993 20.3933 138.667 19.5733 138.16 18.96C137.2 17.7867 135.813 17.2 134 17.2H129V32.96C129 34.0267 129.36 34.76 130.08 35.16C130.8 35.56 132.087 35.76 133.94 35.76C135.793 35.76 137.2 35.1733 138.16 34Z" fill="#1E3A8A"/>
<path fill-rule="evenodd" clip-rule="evenodd" d="M23.5 6L6 15.9997V35.9998L23.5 46.0002L40.9952 36.003L41 35.995V15.9997L23.5 6ZM11.0543 16.9598L23.5 9.85L35.9449 16.9598L32.5793 18.884L23.5 13.6984L14.4231 18.8848L11.0543 16.9598ZM25.1848 25.04V18.5093L30.8977 21.7739V28.303L25.1848 25.04ZM16.1039 21.7731L21.8152 18.5101V25.0384L16.1039 28.3022V21.7731ZM25.1848 37.3401L34.2649 32.1522V21.7707L37.632 19.8457V34.0764L25.1848 41.1885V37.3401ZM9.36716 34.0764V19.8457L12.7343 21.7707V32.1506L21.8152 37.3401V41.1885L9.36716 34.0764ZM17.7855 31.1889L23.4984 27.9243L29.2122 31.1889L23.5 34.4518L17.7855 31.1889Z" fill="#1E3A8A"/>
</svg>
